<?xml version="1.0" encoding="utf-8"?>
<!-- Generator: Adobe Illustrator 16.0.0, SVG Export Plug-In . SVG Version: 6.00 Build 0)  -->
<!DOCTYPE svg PUBLIC "-//W3C//DTD SVG 1.1//EN" "http://www.w3.org/Graphics/SVG/1.1/DTD/svg11.dtd">
<svg version="1.1" id="Layer_1" xmlns="http://www.w3.org/2000/svg" xmlns:xlink="http://www.w3.org/1999/xlink" x="0px" y="0px"
	 width="860px" height="476px" viewBox="0 0 860 476" enable-background="new 0 0 860 476" xml:space="preserve">
<g>
	<g>
		<g>
			<path fill="#0C84E4" d="M163.053,317.75h-20.25h-10.286h-13.821l13.821-35.359v0.321
				C139.589,295.569,149.232,308.104,163.053,317.75z M264.626,315.499c-0.322-2.252-0.322-4.823-5.143-19.93l-8.036-24.751
				c-1.607-4.819-4.179-12.855-8.036-24.748l-4.822-15.11c-0.321-0.641-1.286-3.213-2.893-7.712
				c-10.286-29.893-22.179-64.287-27-76.502c-0.964-2.892-2.572-7.713-4.822-14.143l-6.429-17.037l9.643-26.356
				c1.286-3.537,3.215-8.679,5.465-14.788c8.036,22.823,34.071,92.895,69.751,185.788c5.143,13.503,10.286,27.003,15.107,40.823
				c2.572,6.429,5.465,12.537,8.036,16.716h-41.464C263.984,317.429,264.626,316.464,264.626,315.499z"/>
		</g>
		<g>
			<path fill="#0C84E4" d="M384.195,75.388c-2.893,6.75-2.893,15.108-2.893,18.321v196.718c0,13.499,0.642,21.859,1.927,27.323
				h-37.928c0.643-3.857,0.965-10.607,0.965-24.107V98.209c0-12.214-0.643-18.643-2.25-22.821H384.195z M499.59,124.888
				c0,18.643-6.75,33.108-20.25,44.358c-9.32,7.715-21.215,12.858-35.037,15.429c11.252-12.535,16.715-31.179,16.715-57.536
				c0-23.786-4.822-39.857-11.572-50.145c11.572,1.608,20.574,4.5,27.324,8.679C492.197,95.317,499.59,108.174,499.59,124.888z"/>
		</g>
		<g>
			<path fill="#0C84E4" d="M590.551,93.389v197.038c0,13.499,0.645,21.859,1.93,27.323h-37.932
				c0.646-3.857,1.287-10.607,1.287-24.432V98.209c0-12.214-0.963-18.963-2.25-23.144h40.18
				C590.551,81.816,590.551,90.174,590.551,93.389z M741.305,317.105h-5.787c-5.465-0.321-10.285-0.321-14.463-0.321
				c-4.18,0-7.074,0-9.645,0.321h-13.5c0-4.179-0.643-5.785-23.143-37.286l-56.574-79.394l-0.641-0.643
				c-2.572-2.571-4.18-4.178-5.143-5.464c3.213-3.214,8.676-8.679,18.643-19.286c5.783,7.715,17.035,22.5,34.393,45.001
				c14.465,18,34.715,43.714,60.428,77.143C732.625,306.498,737.447,312.606,741.305,317.105z M731.662,74.423v0.323l-25.717,25.715
				c-8.357-10.93-19.285-19.608-30.857-26.038H731.662z"/>
		</g>
	</g>
	<g>
		<g>
			<path fill="#0C84E4" d="M213.725,362.52c1.293,0,2.17,0.203,2.632,0.612c0.46,0.404,0.729,0.885,0.803,1.439
				c0,0.074,0.064,0.655,0.193,1.745c0.129,1.09,0.287,2.491,0.471,4.21c0.185,1.717,0.397,3.654,0.638,5.818
				c0.239,2.158,0.489,4.367,0.748,6.618c0.258,2.253,0.507,4.461,0.748,6.62c0.239,2.162,0.451,4.091,0.637,5.791
				c0.185,1.699,0.332,3.065,0.443,4.099c0.11,1.034,0.167,1.568,0.167,1.604c0.036,0.074-0.066,0.176-0.306,0.308
				c-0.24,0.127-0.692,0.192-1.357,0.192s-1.1-0.055-1.302-0.167c-0.204-0.11-0.323-0.201-0.36-0.276
				c0-0.035-0.048-0.441-0.139-1.218c-0.093-0.775-0.194-1.624-0.304-2.549c-0.11-0.923-0.213-1.772-0.306-2.549
				c-0.092-0.776-0.137-1.22-0.137-1.328c-0.038-0.26-0.166-0.389-0.389-0.389h-5.54c-0.296,0-0.462,0.108-0.499,0.331
				c0,0.077-0.055,0.501-0.167,1.275c-0.11,0.776-0.221,1.626-0.332,2.547c-0.109,0.926-0.212,1.785-0.305,2.579
				c-0.092,0.794-0.138,1.207-0.138,1.243c-0.037,0.112-0.158,0.223-0.36,0.333c-0.204,0.112-0.675,0.167-1.414,0.167
				c-0.738,0-1.2-0.048-1.384-0.137c-0.185-0.093-0.26-0.194-0.222-0.307c0-0.035,0.056-0.573,0.167-1.606
				c0.111-1.034,0.268-2.398,0.471-4.1c0.202-1.697,0.425-3.63,0.666-5.788c0.239-2.16,0.489-4.378,0.747-6.646
				c0.257-2.272,0.517-4.49,0.775-6.648c0.258-2.164,0.48-4.102,0.666-5.818c0.184-1.719,0.34-3.104,0.471-4.154
				c0.129-1.055,0.193-1.617,0.193-1.688c0.074-0.631,0.334-1.147,0.775-1.552C211.619,362.723,212.468,362.52,213.725,362.52z
				 M216.163,390.165c0.295,0,0.407-0.186,0.332-0.554c0-0.036-0.055-0.49-0.166-1.357c-0.111-0.869-0.25-1.983-0.415-3.354
				c-0.167-1.364-0.353-2.88-0.555-4.541c-0.202-1.662-0.408-3.288-0.61-4.876c-0.203-1.587-0.379-3.046-0.525-4.376
				c-0.149-1.329-0.259-2.344-0.333-3.046c-0.038-0.296-0.075-0.426-0.111-0.39c-0.038,0.039-0.073,0.167-0.11,0.39
				c-0.074,0.702-0.194,1.717-0.361,3.046c-0.166,1.33-0.341,2.789-0.525,4.376c-0.185,1.588-0.388,3.214-0.61,4.876
				c-0.221,1.661-0.415,3.177-0.582,4.541c-0.165,1.37-0.305,2.493-0.416,3.38c-0.11,0.889-0.165,1.349-0.165,1.386
				c0,0.333,0.109,0.499,0.332,0.499H216.163z"/>
		</g>
		<g>
			<path fill="#0C84E4" d="M246.078,399.916c0,0.921-0.185,1.384-0.554,1.384h-9.53c-0.332,0-0.498-0.148-0.498-0.441v-37.783
				c0-0.112,0.138-0.231,0.416-0.36c0.277-0.13,0.709-0.195,1.302-0.195c0.553,0,0.978,0.065,1.274,0.195
				c0.295,0.129,0.443,0.283,0.443,0.471v34.901c0,0.26,0.092,0.388,0.277,0.388h6.315
				C245.893,398.475,246.078,398.954,246.078,399.916z"/>
		</g>
		<g>
			<path fill="#0C84E4" d="M268.071,382.464c0,0.075,0.102,0.389,0.304,0.942c0.203,0.556,0.453,1.273,0.748,2.162
				c0.295,0.884,0.646,1.881,1.053,2.988c0.406,1.109,0.812,2.237,1.219,3.381c0.96,2.696,2.05,5.743,3.268,9.14
				c0.037,0.074-0.064,0.176-0.304,0.308c-0.242,0.127-0.692,0.192-1.357,0.192c-0.739,0-1.229-0.037-1.469-0.11
				c-0.24-0.075-0.378-0.149-0.416-0.221l-5.041-14.018c-0.037-0.146-0.092-0.229-0.166-0.25c-0.075-0.016-0.13,0.049-0.166,0.194
				l-1.386,3.824c-0.037,0.074-0.056,0.176-0.056,0.305c0,0.13,0,0.231,0,0.303v9.254c0,0.183-0.222,0.322-0.664,0.414
				c-0.444,0.091-0.795,0.138-1.053,0.138c-0.296,0-0.656-0.025-1.081-0.082c-0.424-0.056-0.637-0.177-0.637-0.358v-37.895
				c0-0.112,0.146-0.231,0.443-0.36c0.294-0.13,0.702-0.195,1.219-0.195c0.555,0,0.988,0.065,1.301,0.195
				c0.314,0.129,0.471,0.268,0.471,0.417v18.225c0,0.073,0.019,0.13,0.056,0.166c0.037,0.037,0.091-0.019,0.166-0.166
				c0-0.037,0.102-0.32,0.305-0.858c0.203-0.532,0.462-1.236,0.776-2.106c0.312-0.866,0.664-1.846,1.052-2.936
				c0.387-1.086,0.784-2.206,1.191-3.354l3.213-9.081c0.037-0.112,0.175-0.223,0.416-0.335c0.24-0.108,0.693-0.167,1.357-0.167
				c0.628,0,1.081,0.065,1.358,0.195c0.277,0.129,0.396,0.248,0.359,0.36c-0.702,1.992-1.422,4.024-2.16,6.093
				c-0.629,1.771-1.32,3.75-2.078,5.929c-0.758,2.18-1.505,4.32-2.244,6.426C267.961,381.893,267.961,382.208,268.071,382.464z"/>
		</g>
		<g>
			<path fill="#0C84E4" d="M297.986,362.799c1.588,0,2.788,0.36,3.602,1.079c0.811,0.72,1.219,1.892,1.219,3.518v29.142
				c0,1.662-0.408,2.871-1.219,3.628c-0.813,0.757-2.014,1.135-3.602,1.135h-3.6c-1.59,0-2.798-0.36-3.631-1.079
				c-0.831-0.722-1.245-1.894-1.245-3.52v-29.14c0-1.662,0.414-2.871,1.245-3.63c0.833-0.755,2.041-1.133,3.631-1.133H297.986z
				 M299.372,367.396c0-0.517-0.139-0.942-0.416-1.273c-0.276-0.333-0.73-0.498-1.357-0.498h-2.881
				c-0.591,0-1.034,0.202-1.329,0.608c-0.297,0.408-0.444,0.905-0.444,1.496v28.973c0,0.517,0.147,0.942,0.444,1.275
				c0.294,0.333,0.737,0.498,1.329,0.498h2.881c0.589,0,1.033-0.201,1.329-0.606c0.296-0.41,0.444-0.907,0.444-1.498V367.396z"/>
		</g>
		<g>
			<path fill="#0C84E4" d="M331.031,401.467c-0.351,0.073-0.746,0.11-1.19,0.11c-0.407,0-0.794-0.037-1.163-0.11
				c-0.37-0.075-0.555-0.184-0.555-0.333v-17.728c0-0.258-0.13-0.388-0.388-0.388h-5.872c-0.186,0-0.277,0.13-0.277,0.388v17.563
				c0,0.182-0.176,0.33-0.527,0.44c-0.351,0.112-0.747,0.167-1.19,0.167c-0.444,0-0.841-0.026-1.191-0.084
				c-0.351-0.053-0.525-0.176-0.525-0.359v-38.059c0-0.112,0.111-0.231,0.331-0.36c0.222-0.13,0.683-0.195,1.386-0.195
				c0.665,0,1.117,0.065,1.357,0.195c0.24,0.129,0.361,0.268,0.361,0.417v16.562c0,0.262,0.109,0.39,0.332,0.39h5.816
				c0.258,0,0.388-0.112,0.388-0.331v-16.677c0-0.112,0.139-0.231,0.416-0.36c0.277-0.13,0.711-0.195,1.302-0.195
				c1.144,0,1.718,0.203,1.718,0.612v37.945C331.559,401.264,331.382,401.392,331.031,401.467z"/>
		</g>
		<g>
			<path fill="#0C84E4" d="M355.379,362.799c1.588,0,2.788,0.36,3.601,1.079c0.812,0.72,1.218,1.892,1.218,3.518v29.142
				c0,1.662-0.406,2.871-1.218,3.628c-0.813,0.757-2.013,1.135-3.601,1.135h-3.601c-1.589,0-2.797-0.36-3.628-1.079
				c-0.831-0.722-1.247-1.894-1.247-3.52v-29.14c0-1.662,0.416-2.871,1.247-3.63c0.832-0.755,2.039-1.133,3.628-1.133H355.379z
				 M356.764,367.396c0-0.517-0.138-0.942-0.416-1.273c-0.276-0.333-0.729-0.498-1.356-0.498h-2.882
				c-0.591,0-1.033,0.202-1.329,0.608c-0.297,0.408-0.443,0.905-0.443,1.496v28.973c0,0.517,0.146,0.942,0.443,1.275
				c0.295,0.333,0.737,0.498,1.329,0.498h2.882c0.59,0,1.032-0.201,1.329-0.606c0.295-0.41,0.443-0.907,0.443-1.498V367.396z"/>
		</g>
		<g>
			<path fill="#0C84E4" d="M386.125,399.916c0,0.921-0.186,1.384-0.554,1.384h-9.528c-0.331,0-0.498-0.148-0.498-0.441v-37.783
				c0-0.112,0.138-0.231,0.415-0.36c0.277-0.13,0.71-0.195,1.301-0.195c0.554,0,0.979,0.065,1.275,0.195
				c0.296,0.129,0.443,0.283,0.443,0.471v34.901c0,0.26,0.091,0.388,0.276,0.388h6.315
				C385.939,398.475,386.125,398.954,386.125,399.916z"/>
		</g>
		<g>
			<path fill="#0C84E4" d="M431.055,362.799c2.73,0,4.1,1.532,4.1,4.597v11.524c0,1.439-0.416,2.527-1.248,3.269
				c-0.83,0.738-1.967,1.105-3.407,1.105h-4.986c-0.184,0-0.276,0.095-0.276,0.279v17.45c0,0.11-0.156,0.229-0.47,0.361
				c-0.315,0.127-0.747,0.192-1.302,0.192s-0.971-0.065-1.247-0.192c-0.276-0.132-0.415-0.269-0.415-0.415v-37.73
				c0-0.294,0.184-0.44,0.554-0.44H431.055z M431.719,367.396c0-0.479-0.158-0.896-0.472-1.246
				c-0.313-0.352-0.768-0.525-1.357-0.525h-4.265c-0.261,0-0.389,0.092-0.389,0.275v14.184c0,0.26,0.112,0.387,0.333,0.387h4.376
				c0.629,0,1.081-0.194,1.357-0.581c0.277-0.388,0.416-0.915,0.416-1.579V367.396z"/>
		</g>
		<g>
			<path fill="#0C84E4" d="M460.525,398.697c0.111,0.146,0.168,0.534,0.168,1.163c0,0.592-0.057,0.977-0.168,1.163
				c-0.109,0.186-0.24,0.276-0.388,0.276l-9.751-0.054c-0.294,0-0.441-0.13-0.441-0.388v-37.561c0-0.335,0.166-0.499,0.499-0.499
				h9.585c0.182,0,0.331,0.128,0.443,0.387c0.11,0.258,0.164,0.573,0.164,0.942c0,0.333-0.047,0.656-0.14,0.971
				c-0.091,0.312-0.229,0.468-0.415,0.468h-6.427c-0.221,0-0.33,0.112-0.33,0.333v13.961c0,0.223,0.089,0.333,0.276,0.333h5.872
				c0.112,0,0.229,0.082,0.359,0.251c0.128,0.164,0.196,0.562,0.196,1.188c0,0.628-0.068,1.025-0.196,1.191
				c-0.13,0.169-0.267,0.249-0.415,0.249h-5.706c-0.258,0-0.387,0.149-0.387,0.443v14.57c0,0.26,0.129,0.388,0.387,0.388h6.37
				C460.268,398.475,460.416,398.55,460.525,398.697z"/>
		</g>
		<g>
			<path fill="#0C84E4" d="M488.724,379.084c0,0.591-0.194,1.2-0.581,1.829c-0.39,0.629-0.954,0.942-1.689,0.942
				c0.735,0,1.3,0.258,1.689,0.774c0.387,0.519,0.581,1.055,0.581,1.608v16.731c0,0.404-0.554,0.607-1.66,0.607
				c-0.52,0-0.945-0.055-1.274-0.167c-0.333-0.11-0.501-0.259-0.501-0.44v-16.511c0-0.294-0.044-0.543-0.139-0.748
				c-0.093-0.203-0.34-0.305-0.746-0.305h-5.098c-0.258,0-0.388,0.093-0.388,0.278v17.285c0,0.107-0.158,0.23-0.471,0.358
				c-0.313,0.13-0.729,0.194-1.246,0.194c-0.519,0-0.934-0.064-1.247-0.194c-0.313-0.128-0.47-0.269-0.47-0.415v-37.728
				c0-0.259,0.147-0.387,0.443-0.387h8.917c1.293,0,2.264,0.424,2.908,1.273c0.646,0.85,0.971,1.774,0.971,2.77V379.084z
				 M483.737,380.524c1.034,0,1.551-0.516,1.551-1.551v-11.742c0-0.409-0.119-0.778-0.359-1.109
				c-0.24-0.333-0.693-0.498-1.359-0.498h-4.264c-0.258,0-0.388,0.11-0.388,0.332v14.237c0,0.221,0.112,0.331,0.331,0.331H483.737z"
				/>
		</g>
		<g>
			<path fill="#0C84E4" d="M532.157,382.464c0,0.075,0.1,0.389,0.303,0.942c0.203,0.556,0.454,1.273,0.75,2.162
				c0.296,0.884,0.645,1.881,1.053,2.988c0.404,1.109,0.811,2.237,1.218,3.381c0.96,2.696,2.05,5.743,3.269,9.14
				c0.037,0.074-0.064,0.176-0.305,0.308c-0.242,0.127-0.692,0.192-1.355,0.192c-0.741,0-1.23-0.037-1.471-0.11
				c-0.241-0.075-0.38-0.149-0.415-0.221l-5.04-14.018c-0.038-0.146-0.095-0.229-0.168-0.25c-0.074-0.016-0.13,0.049-0.165,0.194
				l-1.386,3.824c-0.036,0.074-0.056,0.176-0.056,0.305c0,0.13,0,0.231,0,0.303v9.254c0,0.183-0.221,0.322-0.664,0.414
				c-0.443,0.091-0.796,0.138-1.053,0.138c-0.297,0-0.657-0.025-1.079-0.082c-0.427-0.056-0.64-0.177-0.64-0.358v-37.895
				c0-0.112,0.148-0.231,0.445-0.36c0.294-0.13,0.7-0.195,1.217-0.195c0.556,0,0.99,0.065,1.304,0.195
				c0.312,0.129,0.47,0.268,0.47,0.417v18.225c0,0.073,0.02,0.13,0.056,0.166c0.035,0.037,0.093-0.019,0.165-0.166
				c0-0.037,0.102-0.32,0.307-0.858c0.203-0.532,0.46-1.236,0.773-2.106c0.314-0.866,0.668-1.846,1.056-2.936
				c0.387-1.086,0.784-2.206,1.189-3.354l3.213-9.081c0.038-0.112,0.177-0.223,0.417-0.335c0.24-0.108,0.692-0.167,1.359-0.167
				c0.625,0,1.077,0.065,1.354,0.195c0.277,0.129,0.398,0.248,0.361,0.36c-0.702,1.992-1.424,4.024-2.16,6.093
				c-0.629,1.771-1.322,3.75-2.079,5.929c-0.757,2.18-1.505,4.32-2.242,6.426C532.045,381.893,532.045,382.208,532.157,382.464z"/>
		</g>
		<g>
			<path fill="#0C84E4" d="M566.836,379.084c0,0.591-0.194,1.2-0.582,1.829c-0.389,0.629-0.949,0.942-1.69,0.942
				c0.741,0,1.302,0.258,1.69,0.774c0.388,0.519,0.582,1.055,0.582,1.608v16.731c0,0.404-0.554,0.607-1.66,0.607
				c-0.52,0-0.945-0.055-1.278-0.167c-0.329-0.11-0.497-0.259-0.497-0.44v-16.511c0-0.294-0.046-0.543-0.139-0.748
				c-0.093-0.203-0.34-0.305-0.746-0.305h-5.099c-0.257,0-0.387,0.093-0.387,0.278v17.285c0,0.107-0.158,0.23-0.472,0.358
				c-0.313,0.13-0.73,0.194-1.247,0.194c-0.519,0-0.933-0.064-1.245-0.194c-0.313-0.128-0.472-0.269-0.472-0.415v-37.728
				c0-0.259,0.147-0.387,0.443-0.387h8.919c1.293,0,2.262,0.424,2.908,1.273s0.971,1.774,0.971,2.77V379.084z M561.85,380.524
				c1.035,0,1.551-0.516,1.551-1.551v-11.742c0-0.409-0.121-0.778-0.359-1.109c-0.24-0.333-0.694-0.498-1.355-0.498h-4.269
				c-0.257,0-0.387,0.11-0.387,0.332v14.237c0,0.221,0.112,0.331,0.331,0.331H561.85z"/>
		</g>
		<g>
			<path fill="#0C84E4" d="M590.656,362.799c1.587,0,2.789,0.36,3.6,1.079c0.812,0.72,1.222,1.892,1.222,3.518v29.142
				c0,1.662-0.41,2.871-1.222,3.628c-0.811,0.757-2.013,1.135-3.6,1.135h-3.601c-1.589,0-2.798-0.36-3.628-1.079
				c-0.832-0.722-1.249-1.894-1.249-3.52v-29.14c0-1.662,0.417-2.871,1.249-3.63c0.83-0.755,2.039-1.133,3.628-1.133H590.656z
				 M592.04,367.396c0-0.517-0.137-0.942-0.413-1.273c-0.277-0.333-0.73-0.498-1.359-0.498h-2.879c-0.59,0-1.035,0.202-1.331,0.608
				c-0.294,0.408-0.443,0.905-0.443,1.496v28.973c0,0.517,0.149,0.942,0.443,1.275c0.296,0.333,0.741,0.498,1.331,0.498h2.879
				c0.59,0,1.035-0.201,1.331-0.606c0.296-0.41,0.441-0.907,0.441-1.498V367.396z"/>
		</g>
		<g>
			<path fill="#0C84E4" d="M624.062,401.385c-0.257,0.127-0.682,0.192-1.273,0.192c-0.589,0-1.006-0.074-1.245-0.223
				c-0.242-0.146-0.396-0.295-0.472-0.441c0-0.037-0.165-0.636-0.499-1.801c-0.332-1.164-0.746-2.605-1.246-4.32
				c-0.499-1.719-1.024-3.574-1.58-5.569c-0.554-1.994-1.079-3.841-1.578-5.538c-0.496-1.699-0.913-3.122-1.246-4.268
				c-0.333-1.144-0.499-1.734-0.499-1.772c-0.037-0.11-0.073-0.174-0.112-0.193c-0.035-0.019-0.053,0.046-0.053,0.193v23.325
				c0,0.107-0.148,0.239-0.443,0.385c-0.296,0.148-0.72,0.223-1.273,0.223c-0.521,0-0.934-0.065-1.249-0.192
				c-0.312-0.132-0.47-0.286-0.47-0.472v-37.728c0-0.298,0.139-0.479,0.415-0.554c0.277-0.073,0.71-0.112,1.304-0.112
				c1.107,0,1.734,0.149,1.882,0.443c1.146,4.247,2.196,8.069,3.158,11.47c0.407,1.44,0.805,2.851,1.191,4.236
				c0.388,1.384,0.729,2.623,1.023,3.712c0.298,1.091,0.545,1.977,0.75,2.658c0.201,0.687,0.303,1.046,0.303,1.081
				c0.038,0.111,0.073,0.203,0.112,0.278c0.037,0.075,0.057-0.036,0.057-0.333v-22.99c0-0.369,0.572-0.556,1.716-0.556
				c1.183,0,1.773,0.203,1.773,0.612l-0.057,37.838C624.45,401.116,624.321,401.253,624.062,401.385z"/>
		</g>
		<g>
			<path fill="#0C84E4" d="M646.277,362.52c1.293,0,2.171,0.203,2.632,0.612c0.464,0.404,0.729,0.885,0.806,1.439
				c0,0.074,0.062,0.655,0.191,1.745c0.129,1.09,0.287,2.491,0.473,4.21c0.184,1.717,0.396,3.654,0.638,5.818
				c0.236,2.158,0.487,4.367,0.748,6.618c0.256,2.253,0.506,4.461,0.746,6.62c0.242,2.162,0.45,4.091,0.638,5.791
				c0.185,1.699,0.333,3.065,0.443,4.099c0.11,1.034,0.165,1.568,0.165,1.604c0.036,0.074-0.063,0.176-0.303,0.308
				c-0.242,0.127-0.694,0.192-1.358,0.192s-1.099-0.055-1.3-0.167c-0.207-0.11-0.326-0.201-0.362-0.276
				c0-0.035-0.048-0.441-0.139-1.218c-0.093-0.775-0.194-1.624-0.305-2.549c-0.112-0.923-0.214-1.772-0.305-2.549
				c-0.092-0.776-0.139-1.22-0.139-1.328c-0.035-0.26-0.166-0.389-0.388-0.389h-5.541c-0.294,0-0.463,0.108-0.497,0.331
				c0,0.077-0.057,0.501-0.165,1.275c-0.112,0.776-0.223,1.626-0.335,2.547c-0.11,0.926-0.21,1.785-0.305,2.579
				c-0.093,0.794-0.139,1.207-0.139,1.243c-0.036,0.112-0.157,0.223-0.358,0.333c-0.205,0.112-0.675,0.167-1.412,0.167
				c-0.741,0-1.2-0.048-1.386-0.137c-0.187-0.093-0.26-0.194-0.223-0.307c0-0.035,0.056-0.573,0.169-1.606
				c0.107-1.034,0.266-2.398,0.471-4.1c0.201-1.697,0.422-3.63,0.661-5.788c0.242-2.16,0.489-4.378,0.751-6.646
				c0.257-2.272,0.515-4.49,0.772-6.648c0.259-2.164,0.479-4.102,0.667-5.818c0.183-1.719,0.34-3.104,0.472-4.154
				c0.126-1.055,0.194-1.617,0.194-1.688c0.071-0.631,0.329-1.147,0.772-1.552C644.172,362.723,645.021,362.52,646.277,362.52z
				 M648.717,390.165c0.292,0,0.404-0.186,0.332-0.554c0-0.036-0.056-0.49-0.168-1.357c-0.11-0.869-0.249-1.983-0.415-3.354
				c-0.165-1.364-0.351-2.88-0.554-4.541c-0.203-1.662-0.406-3.288-0.609-4.876c-0.203-1.587-0.377-3.046-0.527-4.376
				c-0.147-1.329-0.26-2.344-0.331-3.046c-0.037-0.296-0.073-0.426-0.11-0.39c-0.037,0.039-0.074,0.167-0.11,0.39
				c-0.075,0.702-0.194,1.717-0.363,3.046c-0.165,1.33-0.338,2.789-0.523,4.376c-0.187,1.588-0.389,3.214-0.611,4.876
				c-0.219,1.661-0.416,3.177-0.58,4.541c-0.167,1.37-0.307,2.493-0.417,3.38c-0.11,0.889-0.166,1.349-0.166,1.386
				c0,0.333,0.113,0.499,0.332,0.499H648.717z"/>
		</g>
	</g>
	<g>
		<g>
			<path fill="#0C84E4" d="M727.216,366.482c-6.126,1.463-12.184,3.196-18.157,5.191c-0.035,0.033-0.075,0.06-0.117,0.077
				c-1.395,0.595-2.881,0.928-4.314,1.425c-0.674,0.246-1.321,0.556-1.978,0.845c-0.65,0.287-1.307,0.565-1.971,0.814
				c-0.562,0.21-1.127,0.406-1.699,0.572c-0.479,0.207-0.956,0.415-1.438,0.625c-3.308,1.455-6.588,2.989-9.998,4.206
				c-1.801,0.627-3.634,1.152-5.513,1.512c-0.547,0.104-0.906,0.667-0.795,1.208c0.113,0.553,0.661,0.898,1.21,0.794
				c4.225-0.806,8.232-2.45,12.153-4.176c1.991-0.878,3.976-1.785,5.979-2.632c1.965-0.829,3.966-1.562,5.973-2.268
				c0.036-0.012,0.072-0.024,0.108-0.036c1.435-0.383,2.881-0.727,4.335-1.032c3.11-0.652,6.266-1.122,9.436-1.354
				c3.473-0.228,6.99-0.175,10.42,0.47c1.09,0.223,2.168,0.507,3.216,0.879c1.167,0.414,2.271,0.993,3.407,1.481
				c1.133,0.487,2.335,0.844,3.579,0.885c0.657,0.021,1.321-0.063,1.96-0.216c0.598-0.144,1.195-0.328,1.754-0.578
				c0.411-0.182,0.793-0.454,1.059-0.813c0.115-0.152,0.205-0.327,0.261-0.508c0.099-0.291,0.081-0.547,0.057-0.845
				c-0.019-0.209-0.115-0.423-0.19-0.61c-0.068-0.177-0.171-0.337-0.274-0.492c-0.283-0.432-0.582-0.841-0.997-1.156
				c-0.292-0.218-0.647-0.365-0.979-0.511c-0.4-0.176-0.814-0.318-1.225-0.46c-0.816-0.289-1.639-0.556-2.424-0.921
				c-0.148-0.079-0.295-0.161-0.437-0.253c0.912-0.027,1.829,0.138,2.718,0.315c-0.086-0.017-0.174-0.035-0.259-0.051
				c0.462,0.094,0.924,0.182,1.391,0.269c2.728,0.563,5.345,1.508,7.908,2.587c2.6,1.094,5.146,2.312,7.769,3.349
				c0.629,0.251,1.271,0.488,1.913,0.715c0.671,0.236,1.352,0.468,2.04,0.642c1.168,0.298,2.366,0.34,3.55,0.154
				c0.532-0.084,1.046-0.25,1.548-0.434c0.466-0.171,0.906-0.405,1.315-0.685c0.4-0.272,0.771-0.565,1.099-0.929
				c0.371-0.412,0.666-0.852,0.899-1.357c0.404-0.879,0.482-1.871,0.283-2.812c-0.245-1.142-0.943-2.157-1.755-2.977
				c-1.786-1.809-4.244-2.794-6.664-3.429c-2.414-0.63-4.908-0.935-7.39-1.156c-3.188-0.283-6.378-0.21-9.562,0.087
				c-3.21,0.302-6.394,0.855-9.558,1.485c-0.65,0.131-1.299,0.263-1.945,0.396C732.341,365.307,729.774,365.874,727.216,366.482z"/>
		</g>
		<g>
			<path fill="#0C84E4" d="M132.784,366.482c6.126,1.463,12.184,3.196,18.157,5.191c0.035,0.033,0.075,0.06,0.117,0.077
				c1.395,0.595,2.881,0.928,4.314,1.425c0.674,0.246,1.321,0.556,1.978,0.845c0.65,0.287,1.307,0.565,1.971,0.814
				c0.562,0.21,1.127,0.406,1.699,0.572c0.479,0.207,0.956,0.415,1.438,0.625c3.308,1.455,6.588,2.989,9.998,4.206
				c1.801,0.627,3.634,1.152,5.513,1.512c0.547,0.104,0.906,0.667,0.795,1.208c-0.113,0.553-0.661,0.898-1.21,0.794
				c-4.225-0.806-8.232-2.45-12.153-4.176c-1.991-0.878-3.976-1.785-5.979-2.632c-1.965-0.829-3.966-1.562-5.973-2.268
				c-0.036-0.012-0.072-0.024-0.108-0.036c-1.435-0.383-2.881-0.727-4.335-1.032c-3.11-0.652-6.266-1.122-9.436-1.354
				c-3.473-0.228-6.99-0.175-10.42,0.47c-1.09,0.223-2.168,0.507-3.216,0.879c-1.167,0.414-2.271,0.993-3.407,1.481
				c-1.133,0.487-2.335,0.844-3.579,0.885c-0.657,0.021-1.321-0.063-1.96-0.216c-0.598-0.144-1.195-0.328-1.754-0.578
				c-0.411-0.182-0.793-0.454-1.059-0.813c-0.115-0.152-0.205-0.327-0.261-0.508c-0.099-0.291-0.081-0.547-0.057-0.845
				c0.019-0.209,0.115-0.423,0.19-0.61c0.068-0.177,0.171-0.337,0.274-0.492c0.283-0.432,0.582-0.841,0.997-1.156
				c0.292-0.218,0.647-0.365,0.979-0.511c0.4-0.176,0.814-0.318,1.225-0.46c0.816-0.289,1.639-0.556,2.424-0.921
				c0.148-0.079,0.295-0.161,0.437-0.253c-0.912-0.027-1.829,0.138-2.718,0.315c0.086-0.017,0.174-0.035,0.259-0.051
				c-0.462,0.094-0.924,0.182-1.391,0.269c-2.728,0.563-5.345,1.508-7.908,2.587c-2.6,1.094-5.146,2.312-7.769,3.349
				c-0.629,0.251-1.271,0.488-1.913,0.715c-0.671,0.236-1.352,0.468-2.04,0.642c-1.168,0.298-2.366,0.34-3.55,0.154
				c-0.532-0.084-1.046-0.25-1.548-0.434c-0.466-0.171-0.906-0.405-1.315-0.685c-0.4-0.272-0.771-0.565-1.099-0.929
				c-0.371-0.412-0.666-0.852-0.899-1.357c-0.404-0.879-0.482-1.871-0.283-2.812c0.245-1.142,0.943-2.157,1.755-2.977
				c1.786-1.809,4.244-2.794,6.664-3.429c2.414-0.63,4.908-0.935,7.39-1.156c3.188-0.283,6.378-0.21,9.562,0.087
				c3.21,0.302,6.394,0.855,9.558,1.485c0.65,0.131,1.299,0.263,1.945,0.396C127.659,365.307,130.226,365.874,132.784,366.482z"/>
		</g>
	</g>
</g>
<g>
	<path fill="#0C84E4" d="M860,476H0V0h860V476z M12,464h836V12H12V464z"/>
</g>
</svg>
