<?xml version="1.0" encoding="utf-8"?>
<!-- Generator: Adobe Illustrator 16.0.0, SVG Export Plug-In . SVG Version: 6.00 Build 0)  -->
<!DOCTYPE svg PUBLIC "-//W3C//DTD SVG 1.1//EN" "http://www.w3.org/Graphics/SVG/1.1/DTD/svg11.dtd">
<svg version="1.1" id="Layer_1" xmlns="http://www.w3.org/2000/svg" xmlns:xlink="http://www.w3.org/1999/xlink" x="0px" y="0px"
	 width="836px" height="407.57px" viewBox="0 0 836 407.57" enable-background="new 0 0 836 407.57" xml:space="preserve">
<g>
	<g>
		<path fill="#2196F3" d="M121.18,339.064H98.664H87.227H71.859l15.368-39.316v0.357C95.091,314.4,105.812,328.338,121.18,339.064z
			 M234.12,336.561c-0.358-2.504-0.358-5.363-5.719-22.16l-8.935-27.52c-1.787-5.359-4.647-14.295-8.936-27.518l-5.361-16.801
			c-0.357-0.713-1.43-3.572-3.217-8.576c-11.437-33.238-24.661-71.48-30.022-85.062c-1.072-3.216-2.86-8.576-5.361-15.726
			l-7.149-18.944l10.723-29.305c1.43-3.933,3.575-9.65,6.076-16.443c8.935,25.377,37.884,103.291,77.557,206.578
			c5.72,15.014,11.437,30.025,16.798,45.393c2.86,7.148,6.077,13.939,8.935,18.586h-46.104
			C233.406,338.707,234.12,337.633,234.12,336.561z"/>
	</g>
	<g>
		<path fill="#2196F3" d="M367.069,69.581c-3.217,7.505-3.217,16.799-3.217,20.371v218.732c0,15.01,0.714,24.305,2.143,30.381
			h-42.172c0.715-4.289,1.073-11.795,1.073-26.807V94.956c0-13.581-0.715-20.729-2.501-25.375H367.069z M495.377,124.62
			c0,20.729-7.506,36.813-22.516,49.322c-10.363,8.579-23.589,14.297-38.958,17.156c12.511-13.938,18.585-34.668,18.585-63.975
			c0-26.448-5.359-44.316-12.865-55.756c12.865,1.788,22.875,5.004,30.38,9.65C487.157,91.739,495.377,106.035,495.377,124.62z"/>
	</g>
	<g>
		<path fill="#2196F3" d="M596.518,89.596v219.087c0,15.01,0.718,24.305,2.145,30.381h-42.176
			c0.719-4.289,1.431-11.795,1.431-27.166V94.956c0-13.581-1.07-21.085-2.501-25.734h44.675
			C596.518,76.728,596.518,86.021,596.518,89.596z M764.141,338.348h-6.435c-6.077-0.357-11.434-0.357-16.081-0.357
			s-7.866,0-10.724,0.357h-15.011c0-4.648-0.717-6.434-25.734-41.461l-62.903-88.277l-0.714-0.716
			c-2.858-2.858-4.648-4.646-5.719-6.076c3.573-3.573,9.646-9.649,20.729-21.443c6.431,8.578,18.941,25.018,38.244,50.036
			c16.083,20.016,38.6,48.605,67.189,85.775C754.49,326.553,759.852,333.344,764.141,338.348z M753.419,68.507v0.359l-28.595,28.592
			c-9.293-12.153-21.442-21.802-34.311-28.952H753.419z"/>
	</g>
</g>
<g>
	<path fill="#2196F3" d="M836,407.57H0V0h836V407.57z M11.665,397.296h812.67V10.275H11.665V397.296z"/>
</g>
</svg>
